<?xml version="1.0" encoding="UTF-8" standalone="no" ?>
<!DOCTYPE svg PUBLIC "-//W3C//DTD SVG 1.1//EN" "http://www.w3.org/Graphics/SVG/1.1/DTD/svg11.dtd">
<svg xmlns="http://www.w3.org/2000/svg" xmlns:xlink="http://www.w3.org/1999/xlink" version="1.1" width="1080" height="1080" viewBox="0 0 1080 1080" xml:space="preserve">
<desc>Created with Fabric.js 5.2.4</desc>
<defs>
</defs>
<g transform="matrix(1 0 0 1 540 540)" id="65ff2aae-ebd9-442c-9fe7-e3606856eba0"  >
</g>
<g transform="matrix(1 0 0 1 540 540)" id="39a58260-3f00-4fc2-b0d8-617f8bb0d544"  >
<rect style="stroke: none; stroke-width: 1; stroke-dasharray: none; stroke-linecap: butt; stroke-dashoffset: 0; stroke-linejoin: miter; stroke-miterlimit: 4; fill: rgb(255,255,255); fill-rule: nonzero; opacity: 1; visibility: hidden;" vector-effect="non-scaling-stroke"  x="-540" y="-540" rx="0" ry="0" width="1080" height="1080" />
</g>
<g transform="matrix(1 0 0 1 540 540)"  >
<g style="" vector-effect="non-scaling-stroke"   >
		<g transform="matrix(1 0 0 1 -51.53 -289.04)"  >
<path style="stroke: none; stroke-width: 0; stroke-dasharray: none; stroke-linecap: butt; stroke-dashoffset: 0; stroke-linejoin: miter; stroke-miterlimit: 4; fill: rgb(255,255,255); fill-rule: nonzero; opacity: 1;" vector-effect="non-scaling-stroke"  transform=" translate(-454.3, -114.11)" d="M 243.62 177.2 C 260.85 157.45999999999998 280.47 139.54999999999998 302.25 123.98999999999998 L 302.26 123.98999999999998 C 294.23 145.83999999999997 287.55 168.58999999999997 282.32 192.09999999999997 C 301.71999999999997 187.77999999999997 321.15999999999997 183.57999999999996 340.62 179.43999999999997 C 348.81 151.94999999999996 359.33 125.83999999999997 371.93 101.45999999999997 C 372.15000000000003 101.01999999999997 372.39 100.57999999999997 372.63 100.13999999999997 C 373.4 98.63999999999997 374.2 97.15999999999997 374.98 95.67999999999998 C 376.37 93.07999999999998 377.8 90.49999999999997 379.23 87.95999999999998 C 380.5 85.68999999999998 381.81 83.43999999999998 383.12 81.20999999999998 C 390.6 78.43999999999998 398.11 75.94999999999997 405.66 73.73999999999998 L 405.66 73.73999999999998 L 424.74 161.29999999999998 C 437.57 158.51 453.44 155.1 471.36 151.36999999999998 L 452.21000000000004 63.50999999999998 C 460.17 62.32999999999998 468.14000000000004 61.439999999999976 476.09000000000003 60.839999999999975 L 476.1 60.839999999999975 C 476.17 60.879999999999974 476.24 60.939999999999976 476.32000000000005 60.989999999999974 C 478.57000000000005 62.559999999999974 480.81000000000006 64.13999999999997 483.03000000000003 65.75999999999998 C 485.40000000000003 67.47999999999998 487.76000000000005 69.23999999999998 490.11 71.00999999999998 C 491.44 72.02999999999997 492.78000000000003 73.04999999999998 494.11 74.08999999999997 C 494.51 74.37999999999998 494.90000000000003 74.68999999999997 495.29 74.99999999999997 C 517.35 92.28999999999996 538.1800000000001 112.09999999999997 557.4 134.25999999999996 L 557.4 134.25999999999996 C 570.87 131.71999999999997 584.5799999999999 129.19999999999996 598.3 126.78999999999996 C 602.4 126.06999999999996 606.49 125.34999999999997 610.5699999999999 124.65999999999997 C 612.7499999999999 124.31999999999996 614.9399999999999 123.98999999999997 617.1199999999999 123.64999999999996 C 601.7599999999999 103.03999999999996 585.2499999999999 83.87999999999997 567.7799999999999 66.28999999999996 C 591.9899999999999 71.01999999999997 615.5599999999998 78.35999999999996 638.0899999999999 88.09999999999997 C 638.0999999999999 88.09999999999997 638.1299999999999 88.07999999999997 638.1499999999999 88.07999999999997 C 654.5999999999999 95.19999999999997 670.4999999999999 103.60999999999997 685.6699999999998 113.21999999999997 C 690.6099999999999 112.48999999999997 695.5599999999998 111.76999999999997 700.4999999999999 111.05999999999997 C 700.5599999999998 111.05999999999997 700.6099999999999 111.05999999999997 700.6699999999998 111.04999999999997 C 711.3899999999999 109.50999999999996 722.1199999999999 108.03999999999996 732.8599999999999 106.63999999999997 C 745.2099999999999 105.03999999999998 757.5699999999999 103.49999999999997 769.9399999999999 102.02999999999997 C 754.2199999999999 88.04999999999997 737.4899999999999 75.37999999999997 719.92 64.08999999999997 C 719.52 63.82999999999998 719.11 63.56999999999997 718.7099999999999 63.31999999999997 C 717.3399999999999 62.43999999999997 715.9599999999999 61.57999999999997 714.5799999999999 60.729999999999976 C 711.8499999999999 59.03999999999998 709.1099999999999 57.379999999999974 706.3499999999999 55.75999999999998 C 705.2099999999999 55.089999999999975 704.0699999999999 54.42999999999998 702.92 53.769999999999975 C 701.51 52.95999999999997 700.0999999999999 52.159999999999975 698.68 51.369999999999976 C 697.6099999999999 50.769999999999975 696.53 50.16999999999997 695.4499999999999 49.589999999999975 C 694.3699999999999 48.99999999999997 693.29 48.409999999999975 692.1999999999999 47.82999999999998 C 690.16 46.739999999999974 688.1299999999999 45.66999999999997 686.0699999999999 44.619999999999976 C 667.8 35.239999999999974 648.8299999999999 27.269999999999975 629.3499999999999 20.769999999999975 C 648.8399999999999 27.259999999999977 667.81 35.239999999999974 686.0899999999999 44.619999999999976 C 655.5999999999999 28.919999999999977 623.1499999999999 17.129999999999978 589.5699999999999 9.619999999999976 C 589.26 9.549999999999976 588.9499999999999 9.479999999999976 588.6299999999999 9.419999999999977 C 588.6499999999999 9.459999999999976 588.6699999999998 9.489999999999977 588.6899999999998 9.529999999999976 L 588.6799999999998 9.529999999999976 C 514.6699999999998 -6.840000000000025 435.1999999999998 -2.540000000000024 359.03999999999985 26.359999999999975 C 275.1399999999999 58.199999999999974 208.04999999999984 115.01999999999997 163.02999999999986 185.14999999999998 L 162.92999999999986 184.77999999999997 C 162.66999999999987 185.17999999999998 162.40999999999985 185.59999999999997 162.14999999999986 185.99999999999997 C 153.47999999999988 199.58999999999997 145.63999999999987 213.67999999999998 138.65999999999985 228.18999999999997 C 165.90999999999985 220.56999999999996 193.25999999999985 213.27999999999997 220.72999999999985 206.49999999999997 C 227.79999999999984 196.36999999999998 235.42999999999984 186.59999999999997 243.59999999999985 177.23999999999998 Z" stroke-linecap="round" />
</g>
		<g transform="matrix(1 0 0 1 42.28 290.3)"  >
<path style="stroke: none; stroke-width: 0; stroke-dasharray: none; stroke-linecap: butt; stroke-dashoffset: 0; stroke-linejoin: miter; stroke-miterlimit: 4; fill: rgb(255,255,255); fill-rule: nonzero; opacity: 1;" vector-effect="non-scaling-stroke"  transform=" translate(-548.12, -693.46)" d="M 782.37 601.18 C 809.68 594.87 836.88 588.0699999999999 863.89 580.64 C 820.45 669.25 744.5699999999999 742.19 645.03 779.96 C 530.23 823.5300000000001 407.92999999999995 811.1800000000001 308.09 756.4100000000001 C 307.92999999999995 756.32 307.75 756.2300000000001 307.59 756.1400000000001 C 305.42999999999995 754.95 303.27 753.7400000000001 301.13 752.5200000000001 C 299.36 751.5000000000001 297.59 750.4700000000001 295.83 749.4200000000001 C 294.95 748.9000000000001 294.07 748.3700000000001 293.19 747.84 C 292.31 747.32 291.43 746.7800000000001 290.56 746.24 C 290.02 745.9 289.48 745.57 288.94 745.23 C 287.94 744.62 286.96 744 285.96999999999997 743.37 C 285.94 743.35 285.91999999999996 743.33 285.89 743.32 C 267.02 731.37 249.1 717.83 232.33999999999997 702.8000000000001 C 235.84999999999997 702.32 239.35999999999999 701.84 242.86999999999998 701.35 C 242.89999999999998 701.35 242.92 701.35 242.95 701.35 C 268.44 698.71 293.4 695.74 317.56 692.5500000000001 C 336.49 704.58 356.55 714.73 377.41 722.84 C 377.42 722.86 377.43 722.88 377.45000000000005 722.9100000000001 C 396.80000000000007 730.47 416.86 736.2700000000001 437.35 740.2300000000001 C 419.63 722.4400000000002 402.96000000000004 703.1300000000001 387.52000000000004 682.4900000000001 C 408.68000000000006 679.1900000000002 428.87000000000006 675.8100000000002 447.83000000000004 672.4800000000001 C 472.30000000000007 700.5000000000001 499.52000000000004 725.0500000000002 528.83 745.4000000000001 C 536.38 744.8100000000001 543.94 743.95 551.5 742.8500000000001 L 532.66 656.3800000000001 C 551.1999999999999 652.6000000000001 566.92 649.2100000000002 579.28 646.4500000000002 L 598.0699999999999 732.6600000000002 C 605.76 730.4200000000002 613.42 727.8900000000002 621.05 725.0700000000002 L 621.05 725.0700000000002 C 638.64 695.2100000000002 652.8 662.5900000000001 663.24 628.0300000000002 C 682.76 623.7500000000002 702.27 619.3900000000002 721.77 614.9900000000002 C 716.55 638.0800000000003 709.91 660.5500000000002 701.93 682.2400000000002 C 719.03 670.0100000000002 734.79 656.3400000000003 749.1199999999999 641.4800000000002 C 761.2699999999999 628.8700000000002 772.3699999999999 615.3900000000002 782.3699999999999 601.2000000000003 Z" stroke-linecap="round" />
</g>
		<g transform="matrix(1 0 0 1 247.56 -28.84)"  >
<path style="stroke: none; stroke-width: 0; stroke-dasharray: none; stroke-linecap: butt; stroke-dashoffset: 0; stroke-linejoin: miter; stroke-miterlimit: 4; fill: rgb(255,255,255); fill-rule: nonzero; opacity: 1;" vector-effect="non-scaling-stroke"  transform=" translate(-753.38, -374.32)" d="M 1011.56 142.62 C 1010.68 152.9 1009.5799999999999 163.16 1008.5 173.43 C 1006.37 193.57 1004.1 213.68 1002.06 233.83 C 1001.18 242.54000000000002 998.67 250.53 993.7399999999999 257.83000000000004 C 969.2499999999999 294.06000000000006 941.8799999999999 328.03000000000003 912.2299999999999 360.12000000000006 C 890.2899999999998 383.86000000000007 867.4499999999999 406.76000000000005 844.9799999999999 430.00000000000006 C 843.7899999999998 431.2300000000001 842.2499999999999 432.11000000000007 840.8799999999999 433.15000000000003 C 841.2699999999999 433.69000000000005 841.6599999999999 434.23 842.0499999999998 434.76000000000005 L 842.0499999999998 434.76000000000005 C 857.8099999999998 431.36000000000007 873.6199999999999 428.19000000000005 889.2999999999998 424.4800000000001 C 915.2499999999999 418.3500000000001 941.1099999999999 411.8500000000001 967.0199999999999 405.5400000000001 C 971.7699999999999 404.3900000000001 974.2799999999999 406.06000000000006 974.2799999999999 411.0300000000001 C 974.2799999999999 415.2700000000001 973.4499999999998 419.5400000000001 972.6999999999998 423.7500000000001 C 968.7899999999998 445.79000000000013 964.6999999999998 467.8100000000001 960.8499999999998 489.8600000000001 C 958.9799999999998 500.5700000000001 954.3699999999998 508.8000000000001 943.4399999999998 512.6600000000001 C 919.2299999999998 521.2300000000001 895.3399999999998 530.7700000000001 870.8899999999999 538.6000000000001 C 827.4999999999999 552.5000000000001 783.4199999999998 564.0300000000001 738.9899999999999 574.1400000000001 C 698.3699999999999 583.3800000000001 657.7499999999999 592.6700000000001 617.0099999999999 601.32 C 584.2599999999999 608.2700000000001 551.3299999999999 614.3900000000001 518.4399999999998 620.6600000000001 C 513.9099999999999 621.5200000000001 509.0899999999998 621.6700000000001 504.49999999999983 621.21 C 497.55999999999983 620.51 494.23999999999984 615.8000000000001 495.29999999999984 608.9300000000001 C 499.1999999999998 583.73 503.28999999999985 558.5600000000001 507.1399999999998 533.3600000000001 C 508.55999999999983 524.0700000000002 512.7599999999998 516.1800000000002 519.4699999999998 510.03000000000014 C 529.3599999999998 500.97000000000014 539.7599999999998 492.44000000000017 550.1799999999998 483.97000000000014 C 610.9599999999998 434.59000000000015 672.0799999999998 385.6300000000001 732.5499999999998 335.8700000000001 C 774.8099999999998 301.09000000000015 816.2099999999998 265.2600000000001 858.0099999999999 229.92000000000013 C 858.7399999999999 229.30000000000013 859.6299999999999 228.86000000000013 860.4399999999998 228.34000000000012 C 860.2299999999998 227.9700000000001 860.0299999999999 227.61000000000013 859.8199999999998 227.24000000000012 C 855.8899999999999 227.31000000000012 851.9299999999998 227.11000000000013 848.0199999999999 227.5000000000001 C 821.8599999999999 230.11000000000013 795.6899999999998 232.62000000000012 769.5699999999998 235.6300000000001 C 746.5599999999998 238.2700000000001 723.5799999999998 241.37000000000012 700.6299999999999 244.53000000000011 C 675.7499999999999 247.9700000000001 650.9099999999999 251.6700000000001 626.06 255.3800000000001 C 612.1999999999999 257.4500000000001 598.39 259.85000000000014 584.52 261.9000000000001 C 579.15 262.6900000000001 573.68 263.4600000000001 568.28 263.2800000000001 C 559.5799999999999 262.99000000000007 555.9399999999999 258.0300000000001 556.93 249.32000000000008 C 559.4499999999999 227.26000000000008 562.02 205.22000000000008 564.28 183.14000000000007 C 564.98 176.24000000000007 568.41 171.67000000000007 574.66 169.75000000000006 C 581.6899999999999 167.59000000000006 588.9399999999999 165.89000000000004 596.2099999999999 164.78000000000006 C 632.0099999999999 159.31000000000006 667.79 153.60000000000005 703.6999999999999 148.93000000000006 C 741.7399999999999 143.99000000000007 779.8799999999999 139.81000000000006 818.03 135.85000000000005 C 871.53 130.29000000000005 925.1899999999999 127.01000000000005 979.01 127.18000000000005 C 985.4399999999999 127.20000000000005 991.85 127.61000000000006 998.28 127.78000000000004 C 1008.15 128.05000000000004 1012.41 132.66000000000005 1011.55 142.63000000000005 Z" stroke-linecap="round" />
</g>
		<g transform="matrix(1 0 0 1 -249.84 28.57)"  >
<path style="stroke: none; stroke-width: 0; stroke-dasharray: none; stroke-linecap: butt; stroke-dashoffset: 0; stroke-linejoin: miter; stroke-miterlimit: 4; fill: rgb(255,255,255); fill-rule: nonzero; opacity: 1;" vector-effect="non-scaling-stroke"  transform=" translate(-255.99, -431.73)" d="M 250.15 662.75 C 221.94 666.22 193.69 669.48 165.37 671.93 C 133.56 674.6899999999999 101.69 677.02 69.80000000000001 678.39 C 50.780000000000015 679.21 31.650000000000013 678.13 12.59000000000001 677.39 C 2.560000000000011 677 -0.5299999999999887 673.4 0.07000000000001094 663.1899999999999 C 0.8200000000000109 650.3699999999999 2.0400000000000107 637.56 3.520000000000011 624.81 C 6.610000000000011 598.3199999999999 9.640000000000011 571.8199999999999 13.370000000000012 545.42 C 16.850000000000012 520.75 20.690000000000012 496.10999999999996 25.30000000000001 471.64 C 32.180000000000014 435.11 39.640000000000015 398.69 47.33000000000001 362.32 C 51.15000000000001 344.23 55.83000000000001 326.33 60.47000000000001 308.43 C 62.87000000000001 299.17 68.89000000000001 292.63 78.10000000000001 289.64 C 111.05000000000001 278.95 143.81 267.56 177.09 258.03999999999996 C 216.37 246.79999999999995 255.91 236.27999999999997 295.73 227.14999999999998 C 352.82000000000005 214.04999999999998 410.26 202.46999999999997 467.56000000000006 190.27999999999997 C 475.36000000000007 188.61999999999998 483.18000000000006 186.95999999999998 491.05000000000007 185.66999999999996 C 495.44000000000005 184.95999999999995 499.9700000000001 184.65999999999997 504.4200000000001 184.81999999999996 C 510.44000000000005 185.03999999999996 512.7800000000001 188.09999999999997 511.75000000000006 194.07999999999996 C 507.6700000000001 217.86999999999995 503.4700000000001 241.63999999999996 499.30000000000007 265.40999999999997 C 498.2100000000001 271.60999999999996 494.33000000000004 275.80999999999995 489.3500000000001 279.22999999999996 C 482.37000000000006 284.03999999999996 474.2000000000001 285.06999999999994 466.19000000000005 286.7 C 410.87000000000006 297.96 355.45000000000005 308.73 300.30000000000007 320.71 C 260.94000000000005 329.26 221.96000000000006 339.53 182.79000000000008 348.88 C 178.69000000000008 349.86 176.5300000000001 351.79 175.44000000000008 355.94 C 172.89000000000007 365.73 169.83000000000007 375.39 167.04000000000008 385.12 C 166.58000000000007 386.71 166.46000000000006 388.39 166.04000000000008 390.83 L 166.05000000000007 390.83 C 175.70000000000007 388.53 184.50000000000006 386.28999999999996 193.37000000000006 384.34 C 239.94000000000005 374.09 286.5200000000001 363.91999999999996 333.1 353.73999999999995 C 341.09000000000003 351.99999999999994 349.08000000000004 350.24999999999994 357.11 348.72999999999996 C 360.53000000000003 348.09 364.07 347.68999999999994 367.54 347.75999999999993 C 375.97 347.92999999999995 379.97 352.8399999999999 378.5 361.16999999999996 C 374.97 381.10999999999996 371.21 400.99999999999994 367.72 420.92999999999995 C 365.61 433.00999999999993 363.66 445.11999999999995 361.94000000000005 457.25999999999993 C 360.03000000000003 470.68999999999994 351.6600000000001 478.11999999999995 339.25000000000006 480.75999999999993 C 322.32000000000005 484.36999999999995 305.1700000000001 487.00999999999993 288.11000000000007 489.98999999999995 C 260.12000000000006 494.86999999999995 232.10000000000008 499.67999999999995 204.10000000000008 504.53 C 184.3400000000001 507.95 164.60000000000008 511.44 144.8400000000001 514.81 C 142.3700000000001 515.2299999999999 140.23000000000008 515.5699999999999 139.8700000000001 518.6099999999999 C 138.4000000000001 531.18 136.8900000000001 543.7299999999999 135.44000000000008 556.3 C 135.38000000000008 556.81 135.73000000000008 557.37 135.91000000000008 557.9799999999999 C 136.5200000000001 558.1099999999999 137.0900000000001 558.3999999999999 137.61000000000007 558.3199999999999 C 160.71000000000006 554.8699999999999 183.83000000000007 551.42 206.92000000000007 547.9 C 229.63000000000008 544.4399999999999 252.3400000000001 541.01 275.0200000000001 537.39 C 296.55000000000007 533.96 318.05000000000007 530.34 339.5600000000001 526.73 C 371.4300000000001 521.38 403.2800000000001 515.91 435.1600000000001 510.65000000000003 C 439.5300000000001 509.93 444.12000000000006 509.70000000000005 448.5300000000001 510.1 C 456.0900000000001 510.77000000000004 460.2600000000001 515.5400000000001 459.55000000000007 523.09 C 458.63000000000005 532.97 456.95000000000005 542.77 455.62000000000006 552.61 C 452.8500000000001 573.0600000000001 449.90000000000003 593.48 447.4200000000001 613.96 C 446.19000000000005 624.11 441.2300000000001 630.99 431.8300000000001 634.6500000000001 C 428.4000000000001 635.9800000000001 424.8100000000001 637.1700000000001 421.2000000000001 637.7300000000001 C 390.8200000000001 642.4900000000001 360.4200000000001 647.2300000000001 330.0000000000001 651.7000000000002 C 303.42000000000013 655.6000000000001 276.8300000000001 659.4700000000001 250.1600000000001 662.7500000000001 Z" stroke-linecap="round" />
</g>
		<g transform="matrix(1 0 0 1 31.47 -17.1)"  >
<path style="stroke: none; stroke-width: 0; stroke-dasharray: none; stroke-linecap: butt; stroke-dashoffset: 0; stroke-linejoin: miter; stroke-miterlimit: 4; fill: rgb(255,255,255); fill-rule: nonzero; opacity: 1;" vector-effect="non-scaling-stroke"  transform=" translate(-537.3, -386.06)" d="M 456.8 364.72 C 498.16 357.38000000000005 539.53 350.1 580.91 342.91 C 606.79 338.42 632.68 334.07000000000005 658.5899999999999 329.8 C 661.68 329.29 665.8299999999999 327.77000000000004 667.54 331.57 C 669.3199999999999 335.55 666.1899999999999 338.59999999999997 663.28 340.95 C 652.37 349.75 641.37 358.44 630.36 367.11 C 614.91 379.27000000000004 599.38 391.34000000000003 583.96 403.52 C 570.24 414.34999999999997 554.86 421.4 537.5600000000001 424.09999999999997 C 497.7800000000001 430.28999999999996 457.99000000000007 436.43999999999994 418.21000000000004 442.59999999999997 C 416.86 442.80999999999995 415.51000000000005 442.91999999999996 414.53000000000003 443.03 L 414.53000000000003 443.03 C 408.13000000000005 443.30999999999995 405.79 440.75 406.75000000000006 434.26 C 408.39000000000004 423.11 410.32000000000005 411.99 412.13000000000005 400.87 C 413.19000000000005 394.35 414.37000000000006 387.85 415.22 381.29 C 415.98 375.47 419.21000000000004 372.1 424.75 370.96000000000004 C 435.41 368.77000000000004 446.09 366.6 456.82 364.70000000000005 Z" stroke-linecap="round" />
</g>
</g>
</g>
</svg>